<?xml version="1.0" encoding="utf-8"?>
<!-- Generator: Adobe Illustrator 18.0.0, SVG Export Plug-In . SVG Version: 6.00 Build 0)  -->
<!DOCTYPE svg PUBLIC "-//W3C//DTD SVG 1.1//EN" "http://www.w3.org/Graphics/SVG/1.1/DTD/svg11.dtd">
<svg version="1.1" id="Layer_1" xmlns="http://www.w3.org/2000/svg" xmlns:xlink="http://www.w3.org/1999/xlink" x="0px" y="0px"
	 viewBox="0 0 300 300" enable-background="new 0 0 300 300" xml:space="preserve">
<g>
	<path stroke="#FFFFFF" stroke-width="24" stroke-miterlimit="10" d="M65.8,48.2c3.1,0,5.7-2.6,5.7-5.7V19.7c0-3.1-2.6-5.7-5.7-5.7
		c-3.1,0-5.7,2.6-5.7,5.7v22.8C60.1,45.6,62.7,48.2,65.8,48.2z"/>
	<path stroke="#FFFFFF" stroke-width="24" stroke-miterlimit="10" d="M65.8,253.7c-3.1,0-5.7,2.5-5.7,5.7v22.8
		c0,3.1,2.6,5.7,5.7,5.7c3.1,0,5.7-2.6,5.7-5.7v-22.8C71.5,256.3,68.9,253.7,65.8,253.7z"/>
	<path stroke="#FFFFFF" stroke-width="24" stroke-miterlimit="10" d="M43,230.8H20.2c-3.1,0-5.7,2.6-5.7,5.7s2.6,5.7,5.7,5.7H43
		c3.1,0,5.7-2.6,5.7-5.7S46.1,230.8,43,230.8z"/>
	<path stroke="#FFFFFF" stroke-width="24" stroke-miterlimit="10" d="M20.2,71H43c3.1,0,5.7-2.6,5.7-5.7s-2.6-5.7-5.7-5.7H20.2
		c-3.1,0-5.7,2.6-5.7,5.7S17.1,71,20.2,71z"/>
	<path stroke="#FFFFFF" stroke-width="24" stroke-miterlimit="10" d="M259.8,71h22.8c3.1,0,5.7-2.6,5.7-5.7s-2.6-5.7-5.7-5.7h-22.8
		c-3.1,0-5.7,2.6-5.7,5.7S256.7,71,259.8,71z"/>
	<path stroke="#FFFFFF" stroke-width="24" stroke-miterlimit="10" d="M237,48.2c3.1,0,5.7-2.6,5.7-5.7V19.7c0-3.1-2.6-5.7-5.7-5.7
		c-3.2,0-5.7,2.6-5.7,5.7v22.8C231.3,45.6,233.9,48.2,237,48.2z"/>
	<path stroke="#FFFFFF" stroke-width="24" stroke-miterlimit="10" d="M237,253.7c-3.2,0-5.7,2.5-5.7,5.7v22.8c0,3.1,2.6,5.7,5.7,5.7
		s5.7-2.6,5.7-5.7v-22.8C242.7,256.3,240.1,253.7,237,253.7z"/>
	<path stroke="#FFFFFF" stroke-width="24" stroke-miterlimit="10" d="M282.6,230.8h-22.8c-3.1,0-5.7,2.6-5.7,5.7s2.6,5.7,5.7,5.7
		h22.8c3.1,0,5.7-2.6,5.7-5.7S285.7,230.8,282.6,230.8z"/>
	<path stroke="#FFFFFF" stroke-width="24" stroke-miterlimit="10" d="M249.3,50.1c2.1-7,4.4-10.8,4.9-11.6c0.2,0,0.4-0.1,0.6-0.3
		c0.1-0.4,0-0.9-0.3-1.1c-0.1-0.1-0.3-0.1-0.4-0.1c-0.3,0-0.6,0.1-0.7,0.6c-0.1,0.1-0.1,0.3-0.1,0.6c-0.4,0.9-2.6,4.7-7.6,9.9
		c-5.7,5.9-17.1,8.6-17.1,8.6l-1,3.1h-28.9c-0.2-5-1.3-9.8-3.6-14c-0.8-1.2-5.3-8.1-6.7-8.1c-0.3,0-0.6,0.4-0.2,1.8
		c1.1,8.1-0.7,13.5-4.4,17.8c-0.7,0.8-1.5,1.6-2.3,2.4H65.8c-3.1,0-5.7,2.6-5.7,5.7V91l-33.8,33.8l33.8,33.6v78
		c0,3.1,2.6,5.7,5.7,5.7h32.9l-3.6,8.1c-1.5,3-0.8,6.3,1.5,7.3c0.4,0.2,0.9,0.3,1.5,0.3c1.9,0,3.9-1.5,5.1-3.8l6.1-11.9h16.1l-3,5.6
		c-1.8,3-1.3,6.6,2.7,9c1.5,0.9,2.8,1.2,4,1.2c2.2,0,4-1.2,5.2-3.3l4.7-7.3c0.5-0.5,1.8-2.4,3.6-5.3h52.9l12.6,13.7
		c1.3,1.3,3,2,4.8,2c1.8,0,3.5-0.7,4.8-2l10.5-10.4c0.9-0.9,1.6-2.1,1.8-3.3h7c3.1,0,5.7-2.6,5.7-5.7V77.1l7.3-7.9
		C250,69.2,246.8,58.1,249.3,50.1z"/>
</g>
<g>
	<g>
		<g>
			<path d="M237,59.6c3.1,0,5.7,2.6,5.7,5.7v171.2c0,3.1-2.6,5.7-5.7,5.7H65.8c-3.1,0-5.7-2.6-5.7-5.7V65.4c0-3.1,2.6-5.7,5.7-5.7
				H237"/>
		</g>
		<rect x="71.5" y="71.1" fill="#8BFFA6" width="159.8" height="159.8"/>
		<g>
			<path d="M65.8,14c3.1,0,5.7,2.6,5.7,5.7v22.8c0,3.1-2.6,5.7-5.7,5.7s-5.7-2.6-5.7-5.7V19.7C60.1,16.6,62.7,14,65.8,14"/>
		</g>
		<g>
			<path d="M65.8,253.7c3.1,0,5.7,2.6,5.7,5.7v22.8c0,3.1-2.6,5.7-5.7,5.7s-5.7-2.6-5.7-5.7v-22.8C60.1,256.2,62.7,253.7,65.8,253.7
				"/>
		</g>
		<g>
			<path d="M43,230.8c3.1,0,5.7,2.6,5.7,5.7s-2.6,5.7-5.7,5.7H20.2c-3.1,0-5.7-2.6-5.7-5.7s2.6-5.7,5.7-5.7H43"/>
		</g>
		<g>
			<path d="M43,59.6c3.1,0,5.7,2.6,5.7,5.7S46.1,71,43,71H20.2c-3.1,0-5.7-2.6-5.7-5.7s2.6-5.7,5.7-5.7L43,59.6"/>
		</g>
		<g>
			<path d="M282.6,59.6c3.1,0,5.7,2.6,5.7,5.7s-2.6,5.7-5.7,5.7h-22.8c-3.1,0-5.7-2.6-5.7-5.7s2.6-5.7,5.7-5.7L282.6,59.6"/>
		</g>
		<g>
			<path d="M237,14c3.1,0,5.7,2.6,5.7,5.7v22.8c0,3.1-2.6,5.7-5.7,5.7s-5.7-2.6-5.7-5.7V19.7C231.3,16.6,233.8,14,237,14"/>
		</g>
		<g>
			<path d="M237,253.7c3.1,0,5.7,2.6,5.7,5.7v22.8c0,3.1-2.6,5.7-5.7,5.7s-5.7-2.6-5.7-5.7v-22.8C231.3,256.2,233.8,253.7,237,253.7
				"/>
		</g>
		<g>
			<path d="M282.6,230.8c3.1,0,5.7,2.6,5.7,5.7s-2.6,5.7-5.7,5.7h-22.8c-3.1,0-5.7-2.6-5.7-5.7s2.6-5.7,5.7-5.7H282.6"/>
		</g>
	</g>
	<g>
		<g>
			<path fill="#FFC700" d="M160.4,110.3c1.6,0,3.4,0.4,5.4,1.3c5.3,2.5,6.8,6.2,5.5,9.2L157,148.7l-0.3,0.7l-7,14.6l-13.6-5.5
				l10.1-24.2l0.2-0.7l9-20.4C156,111.4,157.8,110.3,160.4,110.3"/>
		</g>
		<g>
			<path fill="#FFC700" d="M173.1,83.4c1.6,0,3.4,0.4,5.4,1.3c5.3,2.5,6.8,6.2,5.5,9.2l-8.5,18c-1.6-2.1-3.8-4.2-7.1-5.7
				c-2.9-1.3-5.5-1.9-7.9-1.9c-0.3,0-0.7,0-1,0l8.5-18C168.8,84.6,170.6,83.4,173.1,83.4"/>
		</g>
		<g>
			<path fill="#FFC700" d="M132,165.2l10.1,12.5l-39,76.5c-1.1,2.4-3.1,3.8-5.1,3.8c-0.6,0-1-0.1-1.5-0.3c-2.2-1-2.9-4.3-1.5-7.3
				l32.7-74.5L132,165.2z"/>
		</g>
		<g>
			<path fill="#D06800" d="M222.6,78.2c1.8,0,3.9,0.7,6.4,2c5.4,3.1,6.7,7.3,4.9,10.3l-36.5,61.3c-1.3-2.4-3.6-4.6-6.8-6.5
				c-3.3-1.9-6.3-2.8-9-2.9l35.9-61.5C218.5,79.2,220.3,78.2,222.6,78.2"/>
		</g>
		<g>
			<path fill="#FF6300" d="M138.9,247.5l-4.7,7.3c-1.1,2-2.9,3.3-5.2,3.3c-1.2,0-2.6-0.3-4-1.2c-4-2.4-4.5-5.9-2.7-9l4.6-8.5"/>
		</g>
		<g>
			<path fill="#FF6300" d="M180.9,148.9c1.8,0,3.9,0.7,6.4,2c5.4,3.1,6.7,7.3,4.9,10.3l-17.2,27.5l-12.5-12.6l13.3-24.5
				C176.9,149.9,178.7,148.9,180.9,148.9"/>
		</g>
		<g>
			<path fill="#FF6300" d="M126.9,239.3l22.6-40.2l4-6.2l12,10.8c-5.4,9.5-24.6,41.7-26.6,43.8"/>
		</g>
		<g>
			<g>
				<path fill="#735424" d="M112,127.9l26,24.2l11.6,10.8l13.1,12.1l13.2,12.3l52.2,48.5c2.7,2.7,2.7,7,0,9.7l-10.5,10.4
					c-1.3,1.3-3,2-4.8,2c-1.8,0-3.5-0.7-4.8-2l-44.7-48.5l-4.3-4.6l-3.1-3.4l-4.3-4.7L140,182l-10.1-11l-29.2-31.8L112,127.9"/>
			</g>
		</g>
		<g>
			<path fill="#8E9191" d="M254,37c0.1,0,0.3,0,0.4,0.1c0.3,0.2,0.4,0.7,0.3,1.1c-0.1,0.2-0.3,0.3-0.6,0.3
				c-0.6,0.8-2.8,4.6-4.9,11.6c-2.5,8,0.7,19.1,0.7,19.1l-10.9,11.9c-1.5-2.2-3.6-4.5-6.8-6.4s-6.2-2.7-8.9-2.8l5.2-15.3
				c0,0,11.3-2.7,17.1-8.6c5.1-5.2,7.2-9,7.6-9.9c0-0.2,0-0.4,0.1-0.6C253.4,37.1,253.7,37,254,37 M238.9,65.9
				c0.9,0,1.8-0.4,2.2-1.2c0.7-1.2,0.3-2.8-0.9-3.5c-0.4-0.2-0.9-0.3-1.3-0.3c-0.9,0-1.7,0.4-2.2,1.2c-0.7,1.2-0.3,2.8,0.9,3.5
				C238.1,65.8,238.5,65.9,238.9,65.9"/>
		</g>
		<g>
			<path fill="#0400E7" d="M188.2,37.6c1.5,0,5.9,6.8,6.7,8.1c5.4,9.7,4.4,23.1-0.4,32.9c-1.9,3.8-3.8,5.9-5.9,7.1
				c-1.5-2.4-3.9-4.6-7.5-6.3c-2.9-1.3-5.5-1.9-7.9-1.9c-1,0-1.9,0.1-2.7,0.3c0-0.4,0-0.9,0.1-1.3c0.7-9.3,8-13.2,13-19.2
				c3.7-4.4,5.5-9.8,4.4-17.8C187.7,38.1,187.9,37.6,188.2,37.6"/>
		</g>
		<g>
			<path fill="#2F2E40" d="M26.3,124.8L81.2,70l3.9,4c0.2,0.2,0.3,0.4,0.6,0.6C90.6,79.4,97,82,103.7,82c7,0,13.5-2.7,18.4-7.6
				c0.4-0.4,0.8-1,1.3-1.7l0.6-0.7l3.9-5.1l24.1,24.1l-79.7,79.7L26.3,124.8z"/>
		</g>
	</g>
</g>
</svg>
